<svg id="expand" xmlns="http://www.w3.org/2000/svg" width="38.23" height="38.23" viewBox="0 0 38.23 38.23">
  <g id="Group_339" data-name="Group 339">
    <g id="Group_338" data-name="Group 338">
      <path id="Path_1076" data-name="Path 1076" d="M35.044,19.115V35.044H3.186V3.186H19.115V0H3.186A3.2,3.2,0,0,0,0,3.186V35.044A3.2,3.2,0,0,0,3.186,38.23H35.044a3.2,3.2,0,0,0,3.186-3.186V19.115Z" fill="#fff"/>
    </g>
  </g>
  <g id="Group_342" data-name="Group 342" transform="translate(19.115)">
    <g id="Group_341" data-name="Group 341">
      <g id="Group_340" data-name="Group 340">
        <path id="Path_1077" data-name="Path 1077" d="M409.6,136.53Z" transform="translate(-390.485 -123.787)" fill="#fff"/>
        <path id="Path_1078" data-name="Path 1078" d="M222.322,0H211.171V3.185h7.3L204.8,16.862l2.253,2.253L220.729,5.441v7.3h3.186V1.592A1.591,1.591,0,0,0,222.322,0Z" transform="translate(-204.8)" fill="#fff"/>
      </g>
    </g>
  </g>
</svg>
