<svg xmlns="http://www.w3.org/2000/svg" width="10.228" height="12.642" viewBox="0 0 10.228 12.642">
  <g id="place" transform="translate(-48.886)">
    <g id="Group_333" data-name="Group 333" transform="translate(48.886)">
      <g id="Group_332" data-name="Group 332" transform="translate(0)">
        <path id="Path_1074" data-name="Path 1074" d="M58.2,2.2a5.1,5.1,0,0,0-8.392,0,5.105,5.105,0,0,0-.594,4.7,4.02,4.02,0,0,0,.741,1.223l3.713,4.361a.442.442,0,0,0,.673,0l3.712-4.36A4.024,4.024,0,0,0,58.789,6.9,5.106,5.106,0,0,0,58.2,2.2Zm-.235,4.4a3.153,3.153,0,0,1-.583.955l0,0L54,11.518,50.621,7.55a3.155,3.155,0,0,1-.584-.958A4.223,4.223,0,0,1,50.531,2.7a4.22,4.22,0,0,1,6.938,0A4.223,4.223,0,0,1,57.961,6.595Z" transform="translate(-48.886)" fill="#fff"/>
      </g>
    </g>
    <g id="Group_335" data-name="Group 335" transform="translate(51.524 2.623)">
      <g id="Group_334" data-name="Group 334" transform="translate(0)">
        <path id="Path_1075" data-name="Path 1075" d="M158.229,106.219a2.475,2.475,0,1,0,2.475,2.475A2.478,2.478,0,0,0,158.229,106.219Zm0,4.067a1.591,1.591,0,1,1,1.591-1.591A1.593,1.593,0,0,1,158.229,110.286Z" transform="translate(-155.754 -106.219)" fill="#fff"/>
      </g>
    </g>
  </g>
</svg>
