<svg xmlns="http://www.w3.org/2000/svg" width="74.775" height="74.679" viewBox="0 0 74.775 74.679">
  <g id="Layer_x0020_1" transform="translate(1048 -179)">
    <path id="Path_994" data-name="Path 994" d="M-1044.958,181.946h14.92v14.92h-14.92v-14.92Zm68.749,71.733h2.984V241.742h-5.968v-2.984h5.968V232.79h-2.984v2.984h-2.984v2.984h-2.984v2.984h2.984v2.984h-5.968v2.984h-5.968v2.984h5.968v2.984h2.984v-2.984h-2.984V247.71h5.968v-2.984h2.984v8.952Zm-20.927,0h2.984V247.71h-5.968v-2.984h2.984v-2.984h2.984v2.984h2.984v-2.984h5.968v-14.92h2.984v2.984h2.984v-5.968h2.984v2.984h2.984v-5.968h-2.984V217.87h2.984v-8.952h-2.984v-2.984h-5.968V202.95h-5.968v2.984h-2.984v2.984h-2.984v-2.984h-2.984V182.061h-2.984v5.968h-2.984v2.984h2.984v8.952h-2.984v-2.984h-2.984v-8.952h-2.984v-2.984h2.984v-5.968h-8.952v2.984h-5.968v2.984h5.968v-2.984h5.968v2.984h-2.984v5.968h2.984V194h-5.968v2.984h-2.984v5.968h-2.984v2.984h-2.984V202.95h-8.952v5.968h2.984V211.9h-5.968v-5.968h-5.968V202.95h-5.968v2.984h5.968v2.984h-5.968v20.888h2.984v-8.952h2.984V217.87h2.984v5.968h2.984v5.968h2.984v-5.968h-2.984v-2.984h5.968v2.984h2.984v-2.984h5.968V217.87h2.984V211.9h2.984v-2.984h-2.984V202.95h2.984v2.984h2.984v2.984h2.984V211.9h-2.984v2.984h-2.984v2.984h5.968v2.984h-8.952v2.984h-2.984v2.984h-8.952v2.984h5.968v8.952h2.984v5.968h2.984v2.984h-5.968v5.968h2.984v-2.984h2.984v2.984h2.984v-8.952h2.984v-2.984h8.953v2.984h-2.984v2.984h5.968v5.968Zm-14.939,0h2.984v-2.984h-2.984Zm-17.943,0h2.984V232.79h-20.889v20.888h17.9Zm0-2.984h-14.92v-14.92h14.92v14.92Zm-5.987-2.984h2.984v-8.952h-8.952v8.952h5.968Zm20.927-5.987h-2.984v-2.984h2.984Zm26.9-2.984h-8.952v-8.952h8.952v8.952Zm-14.939,0h-11.936v-2.984h11.936Zm2.984-2.984h-2.984v-2.984h-2.984v-2.984h5.968v5.968Zm-14.94,0h-5.968v-5.968h2.984v2.984h2.984Zm20.927,0h2.984v-2.984h-2.984Zm-17.943-2.984h-2.984v-2.984h2.984Zm26.9-5.987h-2.984V223.8h2.984Zm-5.987,0h-2.984V223.8h2.984Zm-5.987,0h-5.968V223.8h5.968Zm-8.971,0h-5.968V223.8h5.968Zm-35.867,2.984h2.984v-2.984h-2.984Zm62.762-5.987h-2.984V220.8H-988.2v-5.968h-5.968v-2.984h2.984V208.86h2.984v2.984h2.984v2.984h2.984V208.86h2.984v2.984h2.984v5.968h-2.984v5.968Zm-14.94,0h-2.984V220.8h-2.984v-2.984h2.984v-2.984h2.984v2.984h2.984V220.8h-2.984Zm-8.971-2.984h-2.984v-2.984h2.984Zm-23.911,0h-2.984v-2.984h2.984Zm26.9-2.984h-2.984v-2.984h2.984Zm-5.987,0h-2.984v-5.968h2.984v5.968Zm-17.943,0h-2.984v-2.984h2.984Zm-8.971,0h-2.984v-2.984h2.984Zm-8.971,0h-2.984v-5.968h2.984V208.86h2.984v2.984h2.984v2.984h-5.968Zm20.927-2.984h-2.984v-2.984h-2.984V208.86h8.952v2.984h-2.984Zm-5.987,0h-2.984v-2.984h2.984Zm23.911-2.984h-2.984V208.86h-2.984v-2.984h5.968v5.968Zm5.987-2.984h-2.984v-2.984h2.984Zm-29.9,0h-2.984v-2.984h2.984Zm17.943-2.984h-2.984v-5.968h2.984v-2.984h2.984v5.968h-2.984Zm-2.984-5.987h-2.984V196.9h2.984Zm35.866,0h2.984V179h-20.889v20.888h17.9Zm0-2.984h-14.92v-14.92h14.92V196.9Zm-47.822,2.984h2.984V196.9h-2.984Zm-5.987,0h2.984V179H-1048v20.888h17.9Zm47.822-5.987h2.984v-8.952h-8.952V193.9h5.968Zm-38.851,0h2.984v-2.984h-2.984v-2.984h-2.984V193.9Zm-14.939,0h2.984v-8.952h-8.952V193.9h5.968Z" transform="translate(0 0)" fill="#fff"/>
  </g>
</svg>
